OFF
396 360 0
0 0 0
0.7354 0.378 0
2.2352 0.864 0
4.1598 1.386 0
6.1696 1.872 0
7.925 2.25 0
9.0864 2.448 0
9.3142 2.394 0
8.2688 2.016 0
5.6106 1.242 0
1 0 0
0 0 0
0.724228 0.378 0.127701
2.20124 0.864 0.388138
4.0966 1.386 0.722342
6.07587 1.872 1.07134
7.8046 2.25 1.37616
8.94836 2.448 1.57784
9.1727 2.394 1.61739
8.14318 2.016 1.43586
5.52536 1.242 0.974271
0.984808 0 0.173648
0 0 0
0.69105 0.378 0.251522
2.1004 0.864 0.764483
3.90893 1.386 1.42274
5.79753 1.872 2.11013
7.44706 2.25 2.71051
8.53842 2.448 3.10773
8.75249 2.394 3.18564
7.77013 2.016 2.8281
5.27224 1.242 1.91894
0.939693 0 0.34202
0 0 0
0.636875 0.378 0.3677
1.93574 0.864 1.1176
3.60249 1.386 2.0799
5.34303 1.872 3.0848
6.86325 2.25 3.9625
7.86905 2.448 4.5432
8.06633 2.394 4.6571
7.16099 2.016 4.1344
4.85892 1.242 2.8053
0.866025 0 0.5
0 0 0
0.563349 0.378 0.472706
1.71226 0.864 1.43676
3.18659 1.386 2.67387
4.72619 1.872 3.96574
6.0709 2.25 5.09409
6.96059 2.448 5.84063
7.13509 2.394 5.98705
6.33427 2.016 5.31508
4.29797 1.242 3.60642
0.766044 0 0.642788
0 0 0
0.472706 0.378 0.563349
1.43676 0.864 1.71226
2.67387 1.386 3.18659
3.96574 1.872 4.72619
5.09409 2.25 6.0709
5.84063 2.448 6.96059
5.98705 2.394 7.13509
5.31508 2.016 6.33427
3.60642 1.242 4.29797
0.642788 0 0.766044
0 0 0
0.3677 0.378 0.636875
1.1176 0.864 1.93574
2.0799 1.386 3.60249
3.0848 1.872 5.34303
3.9625 2.25 6.86325
4.5432 2.448 7.86905
4.6571 2.394 8.06633
4.1344 2.016 7.16099
2.8053 1.242 4.85892
0.5 0 0.866025
0 0 0
0.251522 0.378 0.69105
0.764483 0.864 2.1004
1.42274 1.386 3.90893
2.11013 1.872 5.79753
2.71051 2.25 7.44706
3.10773 2.448 8.53842
3.18564 2.394 8.75249
2.8281 2.016 7.77013
1.91894 1.242 5.27224
0.34202 0 0.939693
0 0 0
0.127701 0.378 0.724228
0.388138 0.864 2.20124
0.722342 1.386 4.0966
1.07134 1.872 6.07587
1.37616 2.25 7.8046
1.57784 2.448 8.94836
1.61739 2.394 9.1727
1.43586 2.016 8.14318
0.974271 1.242 5.52536
0.173648 0 0.984808
0 0 0
4.50303e-17 0.378 0.7354
1.36867e-16 0.864 2.2352
2.54714e-16 1.386 4.1598
3.77779e-16 1.872 6.1696
4.85266e-16 2.25 7.925
5.56382e-16 2.448 9.0864
5.7033e-16 2.394 9.3142
5.06318e-16 2.016 8.2688
3.4355e-16 1.242 5.6106
6.12323e-17 0 1
-0 0 0
-0.127701 0.378 0.724228
-0.388138 0.864 2.20124
-0.722342 1.386 4.0966
-1.07134 1.872 6.07587
-1.37616 2.25 7.8046
-1.57784 2.448 8.94836
-1.61739 2.394 9.1727
-1.43586 2.016 8.14318
-0.974271 1.242 5.52536
-0.173648 0 0.984808
-0 0 0
-0.251522 0.378 0.69105
-0.764483 0.864 2.1004
-1.42274 1.386 3.90893
-2.11013 1.872 5.79753
-2.71051 2.25 7.44706
-3.10773 2.448 8.53842
-3.18564 2.394 8.75249
-2.8281 2.016 7.77013
-1.91894 1.242 5.27224
-0.34202 0 0.939693
-0 0 0
-0.3677 0.378 0.636875
-1.1176 0.864 1.93574
-2.0799 1.386 3.60249
-3.0848 1.872 5.34303
-3.9625 2.25 6.86325
-4.5432 2.448 7.86905
-4.6571 2.394 8.06633
-4.1344 2.016 7.16099
-2.8053 1.242 4.85892
-0.5 0 0.866025
-0 0 0
-0.472706 0.378 0.563349
-1.43676 0.864 1.71226
-2.67387 1.386 3.18659
-3.96574 1.872 4.72619
-5.09409 2.25 6.0709
-5.84063 2.448 6.96059
-5.98705 2.394 7.13509
-5.31508 2.016 6.33427
-3.60642 1.242 4.29797
-0.642788 0 0.766044
-0 0 0
-0.563349 0.378 0.472706
-1.71226 0.864 1.43676
-3.18659 1.386 2.67387
-4.72619 1.872 3.96574
-6.0709 2.25 5.09409
-6.96059 2.448 5.84063
-7.13509 2.394 5.98705
-6.33427 2.016 5.31508
-4.29797 1.242 3.60642
-0.766044 0 0.642788
-0 0 0
-0.636875 0.378 0.3677
-1.93574 0.864 1.1176
-3.60249 1.386 2.0799
-5.34303 1.872 3.0848
-6.86325 2.25 3.9625
-7.86905 2.448 4.5432
-8.06633 2.394 4.6571
-7.16099 2.016 4.1344
-4.85892 1.242 2.8053
-0.866025 0 0.5
-0 0 0
-0.69105 0.378 0.251522
-2.1004 0.864 0.764483
-3.90893 1.386 1.42274
-5.79753 1.872 2.11013
-7.44706 2.25 2.71051
-8.53842 2.448 3.10773
-8.75249 2.394 3.18564
-7.77013 2.016 2.8281
-5.27224 1.242 1.91894
-0.939693 0 0.34202
-0 0 0
-0.724228 0.378 0.127701
-2.20124 0.864 0.388138
-4.0966 1.386 0.722342
-6.07587 1.872 1.07134
-7.8046 2.25 1.37616
-8.94836 2.448 1.57784
-9.1727 2.394 1.61739
-8.14318 2.016 1.43586
-5.52536 1.242 0.974271
-0.984808 0 0.173648
-0 0 0
-0.7354 0.378 9.00605e-17
-2.2352 0.864 2.73733e-16
-4.1598 1.386 5.09429e-16
-6.1696 1.872 7.55558e-16
-7.925 2.25 9.70533e-16
-9.0864 2.448 1.11276e-15
-9.3142 2.394 1.14066e-15
-8.2688 2.016 1.01264e-15
-5.6106 1.242 6.871e-16
-1 0 1.22465e-16
-0 0 -0
-0.724228 0.378 -0.127701
-2.20124 0.864 -0.388138
-4.0966 1.386 -0.722342
-6.07587 1.872 -1.07134
-7.8046 2.25 -1.37616
-8.94836 2.448 -1.57784
-9.1727 2.394 -1.61739
-8.14318 2.016 -1.43586
-5.52536 1.242 -0.974271
-0.984808 0 -0.173648
-0 0 -0
-0.69105 0.378 -0.251522
-2.1004 0.864 -0.764483
-3.90893 1.386 -1.42274
-5.79753 1.872 -2.11013
-7.44706 2.25 -2.71051
-8.53842 2.448 -3.10773
-8.75249 2.394 -3.18564
-7.77013 2.016 -2.8281
-5.27224 1.242 -1.91894
-0.939693 0 -0.34202
-0 0 -0
-0.636875 0.378 -0.3677
-1.93574 0.864 -1.1176
-3.60249 1.386 -2.0799
-5.34303 1.872 -3.0848
-6.86325 2.25 -3.9625
-7.86905 2.448 -4.5432
-8.06633 2.394 -4.6571
-7.16099 2.016 -4.1344
-4.85892 1.242 -2.8053
-0.866025 0 -0.5
-0 0 -0
-0.563349 0.378 -0.472706
-1.71226 0.864 -1.43676
-3.18659 1.386 -2.67387
-4.72619 1.872 -3.96574
-6.0709 2.25 -5.09409
-6.96059 2.448 -5.84063
-7.13509 2.394 -5.98705
-6.33427 2.016 -5.31508
-4.29797 1.242 -3.60642
-0.766044 0 -0.642788
-0 0 -0
-0.472706 0.378 -0.563349
-1.43676 0.864 -1.71226
-2.67387 1.386 -3.18659
-3.96574 1.872 -4.72619
-5.09409 2.25 -6.0709
-5.84063 2.448 -6.96059
-5.98705 2.394 -7.13509
-5.31508 2.016 -6.33427
-3.60642 1.242 -4.29797
-0.642788 0 -0.766044
-0 0 -0
-0.3677 0.378 -0.636875
-1.1176 0.864 -1.93574
-2.0799 1.386 -3.60249
-3.0848 1.872 -5.34303
-3.9625 2.25 -6.86325
-4.5432 2.448 -7.86905
-4.6571 2.394 -8.06633
-4.1344 2.016 -7.16099
-2.8053 1.242 -4.85892
-0.5 0 -0.866025
-0 0 -0
-0.251522 0.378 -0.69105
-0.764483 0.864 -2.1004
-1.42274 1.386 -3.90893
-2.11013 1.872 -5.79753
-2.71051 2.25 -7.44706
-3.10773 2.448 -8.53842
-3.18564 2.394 -8.75249
-2.8281 2.016 -7.77013
-1.91894 1.242 -5.27224
-0.34202 0 -0.939693
-0 0 -0
-0.127701 0.378 -0.724228
-0.388138 0.864 -2.20124
-0.722342 1.386 -4.0966
-1.07134 1.872 -6.07587
-1.37616 2.25 -7.8046
-1.57784 2.448 -8.94836
-1.61739 2.394 -9.1727
-1.43586 2.016 -8.14318
-0.974271 1.242 -5.52536
-0.173648 0 -0.984808
-0 0 -0
-1.35091e-16 0.378 -0.7354
-4.106e-16 0.864 -2.2352
-7.64143e-16 1.386 -4.1598
-1.13334e-15 1.872 -6.1696
-1.4558e-15 2.25 -7.925
-1.66914e-15 2.448 -9.0864
-1.71099e-15 2.394 -9.3142
-1.51895e-15 2.016 -8.2688
-1.03065e-15 1.242 -5.6106
-1.83697e-16 0 -1
0 0 -0
0.127701 0.378 -0.724228
0.388138 0.864 -2.20124
0.722342 1.386 -4.0966
1.07134 1.872 -6.07587
1.37616 2.25 -7.8046
1.57784 2.448 -8.94836
1.61739 2.394 -9.1727
1.43586 2.016 -8.14318
0.974271 1.242 -5.52536
0.173648 0 -0.984808
0 0 -0
0.251522 0.378 -0.69105
0.764483 0.864 -2.1004
1.42274 1.386 -3.90893
2.11013 1.872 -5.79753
2.71051 2.25 -7.44706
3.10773 2.448 -8.53842
3.18564 2.394 -8.75249
2.8281 2.016 -7.77013
1.91894 1.242 -5.27224
0.34202 0 -0.939693
0 0 -0
0.3677 0.378 -0.636875
1.1176 0.864 -1.93574
2.0799 1.386 -3.60249
3.0848 1.872 -5.34303
3.9625 2.25 -6.86325
4.5432 2.448 -7.86905
4.6571 2.394 -8.06633
4.1344 2.016 -7.16099
2.8053 1.242 -4.85892
0.5 0 -0.866025
0 0 -0
0.472706 0.378 -0.563349
1.43676 0.864 -1.71226
2.67387 1.386 -3.18659
3.96574 1.872 -4.72619
5.09409 2.25 -6.0709
5.84063 2.448 -6.96059
5.98705 2.394 -7.13509
5.31508 2.016 -6.33427
3.60642 1.242 -4.29797
0.642788 0 -0.766044
0 0 -0
0.563349 0.378 -0.472706
1.71226 0.864 -1.43676
3.18659 1.386 -2.67387
4.72619 1.872 -3.96574
6.0709 2.25 -5.09409
6.96059 2.448 -5.84063
7.13509 2.394 -5.98705
6.33427 2.016 -5.31508
4.29797 1.242 -3.60642
0.766044 0 -0.642788
0 0 -0
0.636875 0.378 -0.3677
1.93574 0.864 -1.1176
3.60249 1.386 -2.0799
5.34303 1.872 -3.0848
6.86325 2.25 -3.9625
7.86905 2.448 -4.5432
8.06633 2.394 -4.6571
7.16099 2.016 -4.1344
4.85892 1.242 -2.8053
0.866025 0 -0.5
0 0 -0
0.69105 0.378 -0.251522
2.1004 0.864 -0.764483
3.90893 1.386 -1.42274
5.79753 1.872 -2.11013
7.44706 2.25 -2.71051
8.53842 2.448 -3.10773
8.75249 2.394 -3.18564
7.77013 2.016 -2.8281
5.27224 1.242 -1.91894
0.939693 0 -0.34202
0 0 -0
0.724228 0.378 -0.127701
2.20124 0.864 -0.388138
4.0966 1.386 -0.722342
6.07587 1.872 -1.07134
7.8046 2.25 -1.37616
8.94836 2.448 -1.57784
9.1727 2.394 -1.61739
8.14318 2.016 -1.43586
5.52536 1.242 -0.974271
0.984808 0 -0.173648
4 0 11 12 1 
4 1 12 13 2 
4 2 13 14 3 
4 3 14 15 4 
4 4 15 16 5 
4 5 16 17 6 
4 6 17 18 7 
4 7 18 19 8 
4 8 19 20 9 
4 9 20 21 10 
4 11 22 23 12 
4 12 23 24 13 
4 13 24 25 14 
4 14 25 26 15 
4 15 26 27 16 
4 16 27 28 17 
4 17 28 29 18 
4 18 29 30 19 
4 19 30 31 20 
4 20 31 32 21 
4 22 33 34 23 
4 23 34 35 24 
4 24 35 36 25 
4 25 36 37 26 
4 26 37 38 27 
4 27 38 39 28 
4 28 39 40 29 
4 29 40 41 30 
4 30 41 42 31 
4 31 42 43 32 
4 33 44 45 34 
4 34 45 46 35 
4 35 46 47 36 
4 36 47 48 37 
4 37 48 49 38 
4 38 49 50 39 
4 39 50 51 40 
4 40 51 52 41 
4 41 52 53 42 
4 42 53 54 43 
4 44 55 56 45 
4 45 56 57 46 
4 46 57 58 47 
4 47 58 59 48 
4 48 59 60 49 
4 49 60 61 50 
4 50 61 62 51 
4 51 62 63 52 
4 52 63 64 53 
4 53 64 65 54 
4 55 66 67 56 
4 56 67 68 57 
4 57 68 69 58 
4 58 69 70 59 
4 59 70 71 60 
4 60 71 72 61 
4 61 72 73 62 
4 62 73 74 63 
4 63 74 75 64 
4 64 75 76 65 
4 66 77 78 67 
4 67 78 79 68 
4 68 79 80 69 
4 69 80 81 70 
4 70 81 82 71 
4 71 82 83 72 
4 72 83 84 73 
4 73 84 85 74 
4 74 85 86 75 
4 75 86 87 76 
4 77 88 89 78 
4 78 89 90 79 
4 79 90 91 80 
4 80 91 92 81 
4 81 92 93 82 
4 82 93 94 83 
4 83 94 95 84 
4 84 95 96 85 
4 85 96 97 86 
4 86 97 98 87 
4 88 99 100 89 
4 89 100 101 90 
4 90 101 102 91 
4 91 102 103 92 
4 92 103 104 93 
4 93 104 105 94 
4 94 105 106 95 
4 95 106 107 96 
4 96 107 108 97 
4 97 108 109 98 
4 99 110 111 100 
4 100 111 112 101 
4 101 112 113 102 
4 102 113 114 103 
4 103 114 115 104 
4 104 115 116 105 
4 105 116 117 106 
4 106 117 118 107 
4 107 118 119 108 
4 108 119 120 109 
4 110 121 122 111 
4 111 122 123 112 
4 112 123 124 113 
4 113 124 125 114 
4 114 125 126 115 
4 115 126 127 116 
4 116 127 128 117 
4 117 128 129 118 
4 118 129 130 119 
4 119 130 131 120 
4 121 132 133 122 
4 122 133 134 123 
4 123 134 135 124 
4 124 135 136 125 
4 125 136 137 126 
4 126 137 138 127 
4 127 138 139 128 
4 128 139 140 129 
4 129 140 141 130 
4 130 141 142 131 
4 132 143 144 133 
4 133 144 145 134 
4 134 145 146 135 
4 135 146 147 136 
4 136 147 148 137 
4 137 148 149 138 
4 138 149 150 139 
4 139 150 151 140 
4 140 151 152 141 
4 141 152 153 142 
4 143 154 155 144 
4 144 155 156 145 
4 145 156 157 146 
4 146 157 158 147 
4 147 158 159 148 
4 148 159 160 149 
4 149 160 161 150 
4 150 161 162 151 
4 151 162 163 152 
4 152 163 164 153 
4 154 165 166 155 
4 155 166 167 156 
4 156 167 168 157 
4 157 168 169 158 
4 158 169 170 159 
4 159 170 171 160 
4 160 171 172 161 
4 161 172 173 162 
4 162 173 174 163 
4 163 174 175 164 
4 165 176 177 166 
4 166 177 178 167 
4 167 178 179 168 
4 168 179 180 169 
4 169 180 181 170 
4 170 181 182 171 
4 171 182 183 172 
4 172 183 184 173 
4 173 184 185 174 
4 174 185 186 175 
4 176 187 188 177 
4 177 188 189 178 
4 178 189 190 179 
4 179 190 191 180 
4 180 191 192 181 
4 181 192 193 182 
4 182 193 194 183 
4 183 194 195 184 
4 184 195 196 185 
4 185 196 197 186 
4 187 198 199 188 
4 188 199 200 189 
4 189 200 201 190 
4 190 201 202 191 
4 191 202 203 192 
4 192 203 204 193 
4 193 204 205 194 
4 194 205 206 195 
4 195 206 207 196 
4 196 207 208 197 
4 198 209 210 199 
4 199 210 211 200 
4 200 211 212 201 
4 201 212 213 202 
4 202 213 214 203 
4 203 214 215 204 
4 204 215 216 205 
4 205 216 217 206 
4 206 217 218 207 
4 207 218 219 208 
4 209 220 221 210 
4 210 221 222 211 
4 211 222 223 212 
4 212 223 224 213 
4 213 224 225 214 
4 214 225 226 215 
4 215 226 227 216 
4 216 227 228 217 
4 217 228 229 218 
4 218 229 230 219 
4 220 231 232 221 
4 221 232 233 222 
4 222 233 234 223 
4 223 234 235 224 
4 224 235 236 225 
4 225 236 237 226 
4 226 237 238 227 
4 227 238 239 228 
4 228 239 240 229 
4 229 240 241 230 
4 231 242 243 232 
4 232 243 244 233 
4 233 244 245 234 
4 234 245 246 235 
4 235 246 247 236 
4 236 247 248 237 
4 237 248 249 238 
4 238 249 250 239 
4 239 250 251 240 
4 240 251 252 241 
4 242 253 254 243 
4 243 254 255 244 
4 244 255 256 245 
4 245 256 257 246 
4 246 257 258 247 
4 247 258 259 248 
4 248 259 260 249 
4 249 260 261 250 
4 250 261 262 251 
4 251 262 263 252 
4 253 264 265 254 
4 254 265 266 255 
4 255 266 267 256 
4 256 267 268 257 
4 257 268 269 258 
4 258 269 270 259 
4 259 270 271 260 
4 260 271 272 261 
4 261 272 273 262 
4 262 273 274 263 
4 264 275 276 265 
4 265 276 277 266 
4 266 277 278 267 
4 267 278 279 268 
4 268 279 280 269 
4 269 280 281 270 
4 270 281 282 271 
4 271 282 283 272 
4 272 283 284 273 
4 273 284 285 274 
4 275 286 287 276 
4 276 287 288 277 
4 277 288 289 278 
4 278 289 290 279 
4 279 290 291 280 
4 280 291 292 281 
4 281 292 293 282 
4 282 293 294 283 
4 283 294 295 284 
4 284 295 296 285 
4 286 297 298 287 
4 287 298 299 288 
4 288 299 300 289 
4 289 300 301 290 
4 290 301 302 291 
4 291 302 303 292 
4 292 303 304 293 
4 293 304 305 294 
4 294 305 306 295 
4 295 306 307 296 
4 297 308 309 298 
4 298 309 310 299 
4 299 310 311 300 
4 300 311 312 301 
4 301 312 313 302 
4 302 313 314 303 
4 303 314 315 304 
4 304 315 316 305 
4 305 316 317 306 
4 306 317 318 307 
4 308 319 320 309 
4 309 320 321 310 
4 310 321 322 311 
4 311 322 323 312 
4 312 323 324 313 
4 313 324 325 314 
4 314 325 326 315 
4 315 326 327 316 
4 316 327 328 317 
4 317 328 329 318 
4 319 330 331 320 
4 320 331 332 321 
4 321 332 333 322 
4 322 333 334 323 
4 323 334 335 324 
4 324 335 336 325 
4 325 336 337 326 
4 326 337 338 327 
4 327 338 339 328 
4 328 339 340 329 
4 330 341 342 331 
4 331 342 343 332 
4 332 343 344 333 
4 333 344 345 334 
4 334 345 346 335 
4 335 346 347 336 
4 336 347 348 337 
4 337 348 349 338 
4 338 349 350 339 
4 339 350 351 340 
4 341 352 353 342 
4 342 353 354 343 
4 343 354 355 344 
4 344 355 356 345 
4 345 356 357 346 
4 346 357 358 347 
4 347 358 359 348 
4 348 359 360 349 
4 349 360 361 350 
4 350 361 362 351 
4 352 363 364 353 
4 353 364 365 354 
4 354 365 366 355 
4 355 366 367 356 
4 356 367 368 357 
4 357 368 369 358 
4 358 369 370 359 
4 359 370 371 360 
4 360 371 372 361 
4 361 372 373 362 
4 363 374 375 364 
4 364 375 376 365 
4 365 376 377 366 
4 366 377 378 367 
4 367 378 379 368 
4 368 379 380 369 
4 369 380 381 370 
4 370 381 382 371 
4 371 382 383 372 
4 372 383 384 373 
4 374 385 386 375 
4 375 386 387 376 
4 376 387 388 377 
4 377 388 389 378 
4 378 389 390 379 
4 379 390 391 380 
4 380 391 392 381 
4 381 392 393 382 
4 382 393 394 383 
4 383 394 395 384 
4 385 0 1 386 
4 386 1 2 387 
4 387 2 3 388 
4 388 3 4 389 
4 389 4 5 390 
4 390 5 6 391 
4 391 6 7 392 
4 392 7 8 393 
4 393 8 9 394 
4 394 9 10 395 
